<?xml version="1.0" encoding="UTF-8" standalone="no"?>
<!DOCTYPE svg PUBLIC "-//W3C//DTD SVG 20010904//EN"
              "http://www.w3.org/TR/2001/REC-SVG-20010904/DTD/svg10.dtd">

<svg xmlns="http://www.w3.org/2000/svg"
     width="15in" height="26.6667in"
     viewBox="0 0 1080 1920">
  <path id="Selection"
        fill="#004d40" stroke="#004d40" stroke-width="1"
        d="M 547.89,202.96
           C 558.15,205.85 542.36,215.74 539.00,217.66
             539.00,217.66 530.00,222.46 530.00,222.46
             520.40,228.30 511.27,235.11 501.00,239.82
             501.00,239.82 487.00,245.09 487.00,245.09
             487.00,245.09 478.00,248.31 478.00,248.31
             478.00,248.31 467.00,253.45 467.00,253.45
             467.00,253.45 450.00,258.88 450.00,258.88
             450.00,258.88 426.00,266.84 426.00,266.84
             426.00,266.84 414.00,269.37 414.00,269.37
             414.00,269.37 399.00,273.34 399.00,273.34
             399.00,273.34 356.00,280.42 356.00,280.42
             356.00,280.42 338.00,284.56 338.00,284.56
             338.00,284.56 318.00,286.66 318.00,286.66
             318.00,286.66 288.00,296.20 288.00,296.20
             282.51,298.47 276.93,302.90 271.00,303.60
             269.30,303.91 267.68,303.86 266.00,303.60
             254.91,301.22 259.03,292.00 257.53,284.00
             256.70,279.53 254.65,275.12 252.77,271.00
             248.67,262.01 244.39,253.07 233.00,252.11
             223.69,251.32 215.19,259.88 209.04,266.04
             209.04,266.04 201.54,275.00 201.54,275.00
             201.54,275.00 195.63,282.00 195.63,282.00
             195.63,282.00 191.13,290.00 191.13,290.00
             191.13,290.00 185.27,300.00 185.27,300.00
             185.27,300.00 171.99,327.00 171.99,327.00
             169.55,331.23 161.51,345.16 158.90,348.00
             157.20,349.84 153.93,353.39 151.15,352.95
             147.09,352.31 149.00,346.46 149.63,344.00
             151.86,335.26 153.54,335.14 157.02,328.00
             157.02,328.00 160.78,319.00 160.78,319.00
             167.20,305.21 176.81,283.15 185.22,271.00
             189.05,265.47 194.15,261.01 198.70,256.09
             205.06,249.22 214.09,239.47 223.00,236.54
             229.73,234.65 231.30,234.83 238.00,236.54
             253.72,239.91 258.72,249.01 264.55,263.00
             264.55,263.00 268.91,273.00 268.91,273.00
             268.91,273.00 271.65,280.98 271.65,280.98
             272.75,283.23 274.25,285.10 277.02,284.81
             279.09,284.59 288.31,278.63 291.00,277.18
             297.59,273.63 305.61,271.61 313.00,270.44
             313.00,270.44 321.00,269.54 321.00,269.54
             321.00,269.54 334.00,266.44 334.00,266.44
             334.00,266.44 346.00,264.88 346.00,264.88
             346.00,264.88 357.00,261.47 357.00,261.47
             357.00,261.47 368.00,260.34 368.00,260.34
             368.00,260.34 384.00,256.96 384.00,256.96
             384.00,256.96 393.00,254.47 393.00,254.47
             393.00,254.47 409.00,252.48 409.00,252.48
             409.00,252.48 446.00,241.89 446.00,241.89
             446.00,241.89 468.00,237.03 468.00,237.03
             468.00,237.03 476.00,233.38 476.00,233.38
             476.00,233.38 499.00,225.13 499.00,225.13
             499.00,225.13 522.00,214.27 522.00,214.27
             529.23,211.03 540.64,203.99 547.89,202.96 Z
           M 413.00,328.65
           C 420.07,327.25 431.49,330.92 429.53,340.00
             428.61,344.25 424.80,345.67 424.65,349.08
             424.44,354.04 430.46,355.63 431.18,359.10
             431.69,361.62 429.59,364.13 428.19,366.00
             424.95,370.36 421.42,375.65 416.00,377.35
             413.83,378.03 411.27,378.00 409.00,378.00
             397.18,378.00 392.99,372.10 391.68,361.00
             391.57,358.41 391.09,356.67 391.68,354.00
             392.75,346.34 397.84,342.81 402.68,337.72
             407.05,333.12 406.53,331.39 413.00,328.65 Z
           M 270.00,370.47
           C 279.01,369.24 284.91,371.33 288.66,380.00
             289.91,382.88 290.81,385.83 290.44,389.00
             289.95,393.37 288.02,394.92 288.47,400.00
             289.11,407.27 292.37,412.46 289.28,420.00
             287.98,423.15 285.59,425.11 283.00,427.18
             273.42,434.82 264.81,436.72 253.00,438.75
             253.00,438.75 249.00,438.75 249.00,438.75
             238.50,438.96 243.60,430.24 242.31,426.04
             241.04,421.87 236.22,421.11 237.15,414.00
             237.86,408.62 245.91,399.34 249.34,395.00
             250.94,392.96 253.81,389.26 254.87,387.00
             257.41,381.58 255.62,373.90 270.00,370.47 Z
           M 271.00,387.45
           C 265.65,389.00 262.37,391.22 261.33,397.00
             260.61,401.00 260.56,406.13 266.02,405.73
             269.73,405.46 278.38,400.59 279.55,396.96
             281.20,391.88 275.55,387.50 271.00,387.45 Z
           M 537.00,1426.00
           C 537.00,1426.00 539.00,1401.00 539.00,1401.00
             539.00,1401.00 541.68,1372.00 541.68,1372.00
             541.68,1372.00 545.73,1335.00 545.73,1335.00
             545.73,1335.00 548.71,1317.00 548.71,1317.00
             548.71,1317.00 551.29,1296.00 551.29,1296.00
             551.29,1296.00 556.56,1266.00 556.56,1266.00
             556.56,1266.00 561.43,1230.00 561.43,1230.00
             561.43,1230.00 565.56,1210.00 565.56,1210.00
             565.56,1210.00 567.46,1195.00 567.46,1195.00
             567.46,1195.00 571.65,1174.00 571.65,1174.00
             571.65,1174.00 574.48,1164.00 574.48,1164.00
             574.48,1164.00 576.29,1151.00 576.29,1151.00
             576.29,1151.00 582.50,1127.00 582.50,1127.00
             582.50,1127.00 584.50,1116.00 584.50,1116.00
             584.50,1116.00 591.11,1091.00 591.11,1091.00
             591.11,1091.00 592.76,1082.00 592.76,1082.00
             592.76,1082.00 596.72,1067.00 596.72,1067.00
             596.72,1067.00 598.90,1049.00 598.90,1049.00
             598.90,1049.00 606.49,1027.00 606.49,1027.00
             606.49,1027.00 611.66,1003.00 611.66,1003.00
             611.66,1003.00 618.23,983.00 618.23,983.00
             618.23,983.00 624.77,957.00 624.77,957.00
             624.77,957.00 631.56,937.00 631.56,937.00
             631.56,937.00 635.29,922.00 635.29,922.00
             635.29,922.00 641.12,904.00 641.12,904.00
             641.12,904.00 648.77,874.00 648.77,874.00
             648.77,874.00 666.43,815.00 666.43,815.00
             666.43,815.00 675.76,783.00 675.76,783.00
             675.76,783.00 683.45,742.00 683.45,742.00
             683.45,742.00 685.90,730.00 685.90,730.00
             685.90,730.00 688.48,721.00 688.48,721.00
             688.48,721.00 690.17,703.00 690.17,703.00
             690.17,703.00 690.17,693.00 690.17,693.00
             690.17,693.00 692.00,671.00 692.00,671.00
             692.06,657.64 688.72,636.98 685.24,624.00
             685.24,624.00 681.78,614.00 681.78,614.00
             681.78,614.00 678.91,602.00 678.91,602.00
             673.29,586.16 667.19,576.07 658.42,562.00
             658.42,562.00 648.63,546.00 648.63,546.00
             642.75,538.29 628.19,523.19 621.00,516.00
             621.00,516.00 606.99,501.44 606.99,501.44
             595.52,491.52 580.84,482.78 568.00,474.57
             568.00,474.57 559.00,468.52 559.00,468.52
             559.00,468.52 542.00,461.02 542.00,461.02
             537.11,458.66 534.56,456.68 529.00,454.70
             529.00,454.70 514.00,450.87 514.00,450.87
             504.86,448.64 504.79,447.02 495.00,447.00
             495.00,447.00 463.00,447.00 463.00,447.00
             454.69,447.10 448.74,449.81 441.00,452.33
             441.00,452.33 405.00,465.58 405.00,465.58
             379.88,476.50 367.50,484.97 346.00,501.62
             341.55,505.06 339.04,505.28 334.04,510.09
             323.27,520.45 314.99,535.20 307.54,548.00
             307.54,548.00 300.67,559.00 300.67,559.00
             294.55,570.04 286.74,587.01 283.02,599.00
             283.02,599.00 279.57,612.00 279.57,612.00
             276.62,622.37 273.13,636.24 273.00,647.00
             272.90,655.60 272.67,662.52 274.68,671.00
             275.52,674.57 278.21,680.15 275.82,683.51
             273.62,686.63 267.87,686.12 265.09,681.87
             263.26,679.08 262.85,674.29 261.78,671.00
             259.41,663.69 256.67,664.23 257.04,655.00
             257.37,646.67 261.99,632.35 263.72,624.00
             263.72,624.00 265.44,611.00 265.44,611.00
             265.44,611.00 269.43,595.00 269.43,595.00
             269.43,595.00 277.30,575.00 277.30,575.00
             277.30,575.00 281.91,561.00 281.91,561.00
             281.91,561.00 297.14,536.00 297.14,536.00
             297.14,536.00 312.39,512.00 312.39,512.00
             316.62,506.63 321.43,503.56 325.91,498.96
             325.91,498.96 333.04,491.01 333.04,491.01
             337.31,486.65 349.93,475.99 355.00,472.29
             363.95,465.75 385.04,457.08 396.00,451.74
             396.00,451.74 406.00,446.51 406.00,446.51
             406.00,446.51 441.00,434.52 441.00,434.52
             441.00,434.52 455.00,432.54 455.00,432.54
             462.87,431.08 468.44,428.71 477.00,429.04
             487.21,429.44 518.69,433.68 528.00,436.75
             528.00,436.75 544.00,444.14 544.00,444.14
             559.93,451.24 584.89,464.54 599.00,474.44
             614.49,485.30 623.23,494.58 636.17,507.91
             636.17,507.91 643.72,515.04 643.72,515.04
             643.72,515.04 675.56,555.00 675.56,555.00
             681.09,563.54 686.25,577.25 690.06,587.00
             690.06,587.00 693.91,596.00 693.91,596.00
             693.91,596.00 701.88,624.00 701.88,624.00
             701.88,624.00 704.70,635.00 704.70,635.00
             704.70,635.00 708.00,671.00 708.00,671.00
             708.00,671.00 707.09,687.00 707.09,687.00
             707.09,687.00 705.83,709.00 705.83,709.00
             705.83,709.00 704.21,720.00 704.21,720.00
             704.21,720.00 705.00,734.00 705.00,734.00
             704.90,739.71 700.97,748.12 699.42,755.00
             699.42,755.00 693.90,775.00 693.90,775.00
             693.90,775.00 691.11,789.00 691.11,789.00
             691.11,789.00 684.43,812.00 684.43,812.00
             684.43,812.00 677.08,840.00 677.08,840.00
             677.08,840.00 668.15,871.00 668.15,871.00
             668.15,871.00 664.85,886.00 664.85,886.00
             664.85,886.00 657.23,914.00 657.23,914.00
             657.23,914.00 652.01,931.00 652.01,931.00
             652.01,931.00 650.07,941.00 650.07,941.00
             650.07,941.00 646.46,950.00 646.46,950.00
             646.46,950.00 641.31,965.00 641.31,965.00
             641.31,965.00 637.57,975.00 637.57,975.00
             637.57,975.00 633.85,997.00 633.85,997.00
             633.85,997.00 625.59,1022.00 625.59,1022.00
             625.59,1022.00 623.10,1033.00 623.10,1033.00
             623.10,1033.00 619.92,1042.00 619.92,1042.00
             619.92,1042.00 617.34,1057.00 617.34,1057.00
             617.34,1057.00 614.08,1072.00 614.08,1072.00
             614.08,1072.00 610.29,1084.00 610.29,1084.00
             610.29,1084.00 605.76,1110.00 605.76,1110.00
             605.76,1110.00 601.63,1122.00 601.63,1122.00
             601.63,1122.00 599.76,1132.00 599.76,1132.00
             599.76,1132.00 596.43,1143.00 596.43,1143.00
             596.43,1143.00 593.34,1161.00 593.34,1161.00
             593.34,1161.00 587.80,1182.00 587.80,1182.00
             587.80,1182.00 584.29,1203.00 584.29,1203.00
             584.29,1203.00 583.19,1214.00 583.19,1214.00
             583.19,1214.00 579.08,1233.00 579.08,1233.00
             579.08,1233.00 576.33,1242.00 576.33,1242.00
             576.33,1242.00 573.99,1266.00 573.99,1266.00
             573.99,1266.00 567.75,1294.00 567.75,1294.00
             567.75,1294.00 565.17,1311.00 565.17,1311.00
             565.17,1311.00 564.56,1320.00 564.56,1320.00
             562.83,1330.99 560.16,1335.79 560.00,1349.00
             559.77,1368.72 558.73,1358.81 556.48,1370.00
             556.48,1370.00 554.85,1387.00 554.85,1387.00
             554.85,1387.00 552.00,1410.00 552.00,1410.00
             551.98,1421.21 551.47,1432.94 553.46,1444.00
             554.80,1451.42 558.92,1458.68 559.21,1461.00
             559.75,1465.45 556.41,1468.21 557.30,1475.00
             558.44,1483.71 569.15,1502.04 574.00,1510.00
             566.41,1511.92 560.42,1505.60 556.04,1499.99
             549.65,1491.79 544.38,1479.22 542.47,1469.00
             541.35,1463.03 542.87,1459.66 540.05,1453.00
             536.60,1444.88 530.85,1442.62 526.04,1436.00
             516.64,1423.06 519.31,1424.00 513.11,1411.00
             513.11,1411.00 505.47,1397.00 505.47,1397.00
             502.92,1390.42 502.98,1382.91 501.35,1376.00
             498.69,1364.77 495.02,1362.02 495.00,1350.00
             495.00,1350.00 492.00,1317.00 492.00,1317.00
             492.00,1317.00 492.00,1294.00 492.00,1294.00
             492.00,1294.00 492.96,1282.00 492.96,1282.00
             492.96,1282.00 492.96,1271.00 492.96,1271.00
             492.96,1271.00 494.32,1253.00 494.32,1253.00
             494.32,1253.00 496.57,1242.00 496.57,1242.00
             496.57,1242.00 498.28,1225.00 498.28,1225.00
             498.28,1225.00 500.94,1211.00 500.94,1211.00
             500.94,1211.00 500.94,1202.00 500.94,1202.00
             500.94,1202.00 502.83,1192.00 502.83,1192.00
             502.83,1192.00 505.26,1164.00 505.26,1164.00
             505.26,1164.00 516.24,1122.00 516.24,1122.00
             516.24,1122.00 518.53,1106.00 518.53,1106.00
             518.53,1106.00 521.23,1098.00 521.23,1098.00
             521.23,1098.00 523.57,1088.00 523.57,1088.00
             523.57,1088.00 528.80,1073.00 528.80,1073.00
             528.80,1073.00 538.44,1038.00 538.44,1038.00
             538.44,1038.00 541.96,1028.00 541.96,1028.00
             541.96,1028.00 543.90,1020.00 543.90,1020.00
             543.90,1020.00 554.54,989.00 554.54,989.00
             554.54,989.00 558.26,980.00 558.26,980.00
             558.26,980.00 564.58,960.00 564.58,960.00
             564.58,960.00 567.09,950.00 567.09,950.00
             567.09,950.00 573.56,931.00 573.56,931.00
             573.56,931.00 575.77,922.00 575.77,922.00
             575.77,922.00 581.25,905.00 581.25,905.00
             581.25,905.00 583.90,891.00 583.90,891.00
             583.90,891.00 590.71,856.00 590.71,856.00
             590.71,856.00 592.00,832.00 592.00,832.00
             592.00,832.00 591.00,812.00 591.00,812.00
             590.88,802.00 587.69,790.62 585.15,781.00
             585.15,781.00 581.91,768.00 581.91,768.00
             578.27,757.83 566.32,736.40 559.71,728.00
             553.98,720.71 553.74,722.02 548.17,716.86
             524.53,694.95 494.96,679.04 462.00,679.00
             447.75,678.98 427.40,686.00 415.00,693.04
             405.72,698.31 397.17,705.10 389.00,711.92
             389.00,711.92 374.17,724.09 374.17,724.09
             374.17,724.09 361.54,740.91 361.54,740.91
             361.54,740.91 353.01,749.01 353.01,749.01
             353.01,749.01 343.28,760.00 343.28,760.00
             343.28,760.00 322.10,789.89 322.10,789.89
             319.72,792.91 314.77,795.81 312.60,790.85
             310.73,786.60 312.79,778.91 314.90,775.00
             314.90,775.00 335.19,747.00 335.19,747.00
             335.19,747.00 347.60,730.21 347.60,730.21
             347.60,730.21 353.40,724.79 353.40,724.79
             358.80,718.64 358.51,716.19 368.00,707.04
             374.65,700.63 382.46,696.25 390.00,691.10
             390.00,691.10 403.00,680.99 403.00,680.99
             403.00,680.99 410.00,677.52 410.00,677.52
             420.26,672.14 427.38,668.69 439.00,666.47
             439.00,666.47 450.00,664.91 450.00,664.91
             461.96,662.64 455.58,661.82 471.00,662.00
             478.61,662.09 481.06,663.48 488.00,664.99
             504.68,668.60 508.76,668.96 524.00,677.58
             538.06,685.52 541.33,687.22 554.17,697.58
             554.17,697.58 560.91,703.09 560.91,703.09
             565.04,707.18 567.46,711.53 570.95,716.00
             570.95,716.00 582.59,730.17 582.59,730.17
             586.91,737.21 594.06,757.51 596.42,766.00
             602.21,786.78 607.25,811.39 607.00,833.00
             607.00,833.00 606.04,843.00 606.04,843.00
             606.04,843.00 606.04,853.00 606.04,853.00
             605.79,870.86 600.72,887.77 596.65,905.00
             596.65,905.00 594.49,916.00 594.49,916.00
             594.49,916.00 591.91,924.00 591.91,924.00
             591.91,924.00 580.77,963.00 580.77,963.00
             580.77,963.00 578.44,973.00 578.44,973.00
             578.44,973.00 572.16,993.00 572.16,993.00
             572.16,993.00 570.38,1001.00 570.38,1001.00
             570.38,1001.00 566.33,1010.00 566.33,1010.00
             566.33,1010.00 562.03,1022.00 562.03,1022.00
             562.03,1022.00 555.56,1052.00 555.56,1052.00
             552.85,1060.85 549.43,1060.12 544.72,1076.00
             542.34,1084.03 543.50,1085.46 542.21,1090.00
             542.21,1090.00 539.59,1097.00 539.59,1097.00
             533.49,1115.86 527.67,1135.55 523.81,1155.00
             523.81,1155.00 520.72,1181.00 520.72,1181.00
             520.72,1181.00 516.57,1210.00 516.57,1210.00
             516.57,1210.00 514.00,1224.00 514.00,1224.00
             514.00,1224.00 514.00,1234.00 514.00,1234.00
             514.00,1234.00 511.00,1252.00 511.00,1252.00
             511.00,1252.00 511.00,1263.00 511.00,1263.00
             511.00,1263.00 509.08,1275.00 509.08,1275.00
             509.08,1275.00 509.08,1284.00 509.08,1284.00
             509.08,1284.00 507.96,1301.00 507.96,1301.00
             507.96,1301.00 507.01,1314.00 507.01,1314.00
             507.01,1314.00 508.00,1339.00 508.00,1339.00
             508.00,1339.00 510.72,1356.00 510.72,1356.00
             510.72,1356.00 512.52,1370.00 512.52,1370.00
             512.52,1370.00 521.70,1397.00 521.70,1397.00
             526.61,1409.85 524.46,1415.44 537.00,1426.00 Z
           M 503.04,569.13
           C 509.55,568.07 510.68,573.75 511.39,579.00
             512.56,587.53 505.61,598.18 500.79,605.00
             494.42,614.02 479.62,622.61 469.00,625.51
             463.36,627.05 461.21,626.65 456.00,627.28
             451.46,627.84 445.39,629.16 441.00,628.91
             434.67,628.54 429.88,626.33 424.00,624.90
             424.00,624.90 413.00,622.56 413.00,622.56
             405.05,620.13 390.66,612.18 385.30,606.00
             382.01,602.20 373.21,589.67 372.43,585.00
             371.40,578.89 375.81,574.27 381.98,575.24
             388.70,576.29 386.99,582.34 389.85,586.99
             392.26,590.90 397.90,594.53 402.00,596.51
             408.85,599.83 410.52,599.67 417.00,601.75
             426.48,604.78 435.90,607.96 446.00,608.00
             458.37,608.05 472.37,604.85 481.91,596.53
             490.20,589.30 497.19,573.16 503.04,569.13 Z
           M 321.00,816.00
           C 319.28,816.78 317.99,817.56 316.00,817.56
             309.92,817.54 302.48,808.68 303.53,803.04
             304.29,798.98 309.79,795.85 313.37,801.13
             313.37,801.13 317.31,808.00 317.31,808.00
             319.39,811.51 319.65,812.21 321.00,816.00 Z" />
</svg>
